<svg width="56" height="54" viewBox="0 0 56 54" fill="none" xmlns="http://www.w3.org/2000/svg">
<path d="M15.9979 21.4811C15.9979 21.4811 14.6844 8.7206 20.376 4.65465C26.3941 0.355453 31.7592 1.71388 35.2617 5.62382C38.7642 9.53377 38.7642 21.4811 38.7642 21.4811" stroke="white" stroke-width="4" stroke-linecap="round"/>
<mask id="path-2-outside-1_59_662" maskUnits="userSpaceOnUse" x="-0.0244141" y="11.6364" width="56" height="43" fill="black">
<rect fill="white" x="-0.0244141" y="11.6364" width="56" height="43"/>
<path fill-rule="evenodd" clip-rule="evenodd" d="M9.97878 13.6364C5.45544 13.6364 2.11975 17.8622 3.17013 22.2619L6.11052 34.5782L8.39416 46.1711C8.90762 48.7777 10.8288 50.8065 13.2736 51.5307C14.0606 51.8348 14.9122 52 15.7953 52H39.0784C40.249 52 41.3665 51.7094 42.3515 51.1879C44.2283 50.3315 45.6844 48.6637 46.2254 46.5677L49.2322 34.9189L52.7576 22.556C54.0326 18.085 50.6751 13.6364 46.026 13.6364H9.97878ZM49.2322 34.9189L52.2795 23.1131C53.4232 18.6823 50.0777 14.3636 45.5017 14.3636H10.642C6.23292 14.3636 2.9218 18.3906 3.77395 22.7165L6.11052 34.5782L8.9867 46.6255C9.53396 48.9178 11.1734 50.7191 13.2736 51.5307C13.9065 51.7182 14.5745 51.8182 15.2622 51.8182H39.4476C40.4751 51.8182 41.4607 51.5945 42.3515 51.1879C43.9975 50.3166 45.2736 48.8007 45.8101 46.9196L49.2322 34.9189Z"/>
</mask>
<path fill-rule="evenodd" clip-rule="evenodd" d="M9.97878 13.6364C5.45544 13.6364 2.11975 17.8622 3.17013 22.2619L6.11052 34.5782L8.39416 46.1711C8.90762 48.7777 10.8288 50.8065 13.2736 51.5307C14.0606 51.8348 14.9122 52 15.7953 52H39.0784C40.249 52 41.3665 51.7094 42.3515 51.1879C44.2283 50.3315 45.6844 48.6637 46.2254 46.5677L49.2322 34.9189L52.7576 22.556C54.0326 18.085 50.6751 13.6364 46.026 13.6364H9.97878ZM49.2322 34.9189L52.2795 23.1131C53.4232 18.6823 50.0777 14.3636 45.5017 14.3636H10.642C6.23292 14.3636 2.9218 18.3906 3.77395 22.7165L6.11052 34.5782L8.9867 46.6255C9.53396 48.9178 11.1734 50.7191 13.2736 51.5307C13.9065 51.7182 14.5745 51.8182 15.2622 51.8182H39.4476C40.4751 51.8182 41.4607 51.5945 42.3515 51.1879C43.9975 50.3166 45.2736 48.8007 45.8101 46.9196L49.2322 34.9189Z" fill="white"/>
<path d="M3.17013 22.2619L5.11546 21.7974L3.17013 22.2619ZM8.39416 46.1711L10.3565 45.7846L8.39416 46.1711ZM46.2254 46.5677L44.2889 46.0678H44.2889L46.2254 46.5677ZM52.7576 22.556L50.8343 22.0075V22.0075L52.7576 22.556ZM52.2795 23.1131L54.216 23.613L52.2795 23.1131ZM3.77395 22.7165L5.73624 22.33L3.77395 22.7165ZM8.9867 46.6255L7.04137 47.09L8.9867 46.6255ZM45.8101 46.9196L43.8867 46.3712L45.8101 46.9196ZM5.11546 21.7974C4.36519 18.6548 6.74783 15.6364 9.97878 15.6364V11.6364C4.16305 11.6364 -0.125686 17.0695 1.2248 22.7263L5.11546 21.7974ZM8.05585 34.1137L5.11546 21.7974L1.2248 22.7263L4.16519 35.0426L8.05585 34.1137ZM10.3565 45.7846L8.07281 34.1916L4.14823 34.9647L6.43187 46.5577L10.3565 45.7846ZM13.8416 49.6131C12.0942 49.0954 10.7229 47.6449 10.3565 45.7846L6.43187 46.5577C7.09233 49.9105 9.5634 52.5176 12.7056 53.4483L13.8416 49.6131ZM15.7953 50C15.1629 50 14.5554 49.8819 13.9946 49.6652L12.5526 53.3962C13.5657 53.7878 14.6615 54 15.7953 54V50ZM39.0784 50H15.7953V54H39.0784V50ZM41.4157 49.4203C40.7126 49.7926 39.9156 50 39.0784 50V54C40.5824 54 42.0203 53.6262 43.2872 52.9555L41.4157 49.4203ZM44.2889 46.0678C43.9027 47.564 42.8639 48.7557 41.5212 49.3684L43.1818 53.0074C45.5927 51.9072 47.4661 49.7634 48.162 47.0675L44.2889 46.0678ZM47.2957 34.419L44.2889 46.0678L48.1619 47.0675L51.1687 35.4187L47.2957 34.419ZM50.8343 22.0075L47.3089 34.3704L51.1555 35.4673L54.681 23.1044L50.8343 22.0075ZM46.026 15.6364C49.3468 15.6364 51.745 18.814 50.8343 22.0075L54.681 23.1044C56.3202 17.3561 52.0035 11.6364 46.026 11.6364V15.6364ZM9.97878 15.6364H46.026V11.6364H9.97878V15.6364ZM50.343 22.6133L47.2957 34.419L51.1687 35.4187L54.216 23.613L50.343 22.6133ZM45.5017 16.3636C48.7703 16.3636 51.1599 19.4484 50.343 22.6133L54.216 23.613C55.6865 17.9162 51.3852 12.3636 45.5017 12.3636V16.3636ZM10.642 16.3636H45.5017V12.3636H10.642V16.3636ZM5.73624 22.33C5.12756 19.24 7.49265 16.3636 10.642 16.3636V12.3636C4.97319 12.3636 0.716043 17.5412 1.81165 23.1031L5.73624 22.33ZM8.07281 34.1916L5.73624 22.33L1.81165 23.1031L4.14823 34.9647L8.07281 34.1916ZM10.932 46.1611L8.05585 34.1137L4.16519 35.0426L7.04137 47.09L10.932 46.1611ZM13.9946 49.6652C12.4925 49.0847 11.3226 47.7972 10.932 46.1611L7.04137 47.09C7.74528 50.0384 9.8544 52.3534 12.5526 53.3962L13.9946 49.6652ZM15.2622 49.8182C14.7691 49.8182 14.2924 49.7466 13.8416 49.6131L12.7056 53.4483C13.5206 53.6898 14.3798 53.8182 15.2622 53.8182V49.8182ZM39.4476 49.8182H15.2622V53.8182H39.4476V49.8182ZM41.5212 49.3684C40.8858 49.6584 40.1829 49.8182 39.4476 49.8182V53.8182C40.7672 53.8182 42.0355 53.5305 43.1818 53.0074L41.5212 49.3684ZM43.8867 46.3712C43.5038 47.7142 42.5934 48.7969 41.4157 49.4203L43.2872 52.9555C45.4015 51.8362 47.0435 49.8873 47.7334 47.4681L43.8867 46.3712ZM47.3089 34.3704L43.8867 46.3712L47.7334 47.4681L51.1555 35.4673L47.3089 34.3704Z" fill="white" mask="url(#path-2-outside-1_59_662)"/>
</svg>
